<svg xmlns="http://www.w3.org/2000/svg" style="display: none;">
  
    <symbol id="icon-instagram" viewBox="0 0 512 512">
      <path d="m389 256c0-9-1-17-3-26c0 0 90 0 90 0c0 0 0 177 0 177c0 19-6 35-20 49c-13 13-29 20-48 20c0 0-304 0-304 0c-19 0-35-7-48-20c-14-14-20-30-20-49c0 0 0-177 0-177c0 0 89 0 89 0c-1 11-2 20-2 26c0 36 13 67 39 94c26 26 57 39 94 39c36 0 67-13 94-39c26-27 39-58 39-94m19-220c19 0 35 6 48 20c14 13 20 29 20 48c0 0 0 75 0 75c0 0-111 0-111 0c-27-37-63-56-109-56c-47 0-83 19-109 56c0 0-111 0-111 0c0 0 0-75 0-75c0-19 6-35 20-48c13-14 29-20 48-20c0 0 304 0 304 0m32 85c0 0 0-37 0-37c0-8-4-12-12-12c0 0-37 0-37 0c-8 0-12 4-12 12c0 0 0 37 0 37c0 3 1 5 3 8c3 3 6 4 9 4c0 0 37 0 37 0c8 0 12-4 12-12m-102 135c0 23-8 42-24 58c-16 16-35 24-58 24c-23 0-42-8-58-24c-16-16-24-35-24-58c0-23 8-43 24-58c16-16 35-24 58-24c23 0 42 8 58 24c16 15 24 35 24 58"/>
    </symbol>
  
    <symbol id="icon-github" viewBox="0 0 512 512">
      <path d="m475 256c0 48-14 91-41 129-28 38-64 65-109 79-5 1-8 1-11-2-2-2-3-5-3-8l0-61c0-18-5-32-15-40 11-1 20-3 29-5 9-3 18-6 27-11 9-6 17-12 23-19 6-8 11-18 15-30 4-13 6-27 6-43 0-23-8-43-23-59 7-18 7-37-2-59-5-1-13 0-23 4-10 3-19 8-26 12l-11 7c-18-5-36-7-55-7-19 0-37 2-55 7-3-2-7-5-12-8-5-3-13-6-24-11-11-4-19-5-24-4-9 22-9 41-2 59-15 16-23 36-23 59 0 16 2 30 6 42 4 13 9 23 15 30 6 8 14 14 23 20 9 5 18 8 27 11 8 2 18 4 29 5-8 7-12 17-14 29-4 2-8 4-13 5-4 1-10 1-16 1-6 0-13-2-19-6-6-4-11-10-16-18-3-6-8-11-14-15-5-4-10-6-14-7l-5-1c-4 0-7 1-9 2-1 1-2 2-1 3 0 1 1 3 2 4 2 1 3 2 4 3l2 2c4 2 8 5 13 11 4 5 7 10 9 14l2 7c3 7 7 13 13 17 6 5 12 8 19 9 7 1 14 2 20 2 6 0 12 0 16-1l6-1c0 7 0 16 1 25 0 10 0 15 0 16 0 3-2 6-4 8-2 3-6 3-11 2-45-14-81-41-109-79-27-38-41-81-41-129 0-40 9-77 29-110 20-34 46-60 80-80 33-20 70-29 110-29 40 0 77 9 110 29 34 20 60 46 80 80 20 33 29 70 29 110z"/>
    </symbol>
  
    <symbol id="icon-linkedin" viewBox="0 0 512 512">
      <path d="m130 78c0 13-5 25-15 35c-10 9-22 14-38 14c-15 0-28-5-37-14c-10-10-14-22-14-35c0-15 4-26 14-36c9-9 22-13 38-13c16 0 28 4 37 13c9 10 14 21 15 36m-101 404c0 0 0-316 0-316c0 0 98 0 98 0c0 0 0 316 0 316c0 0-98 0-98 0m156-215c0-29 0-63-2-101c0 0 85 0 85 0c0 0 5 44 5 44c0 0 2 0 2 0c21-34 53-51 98-51c34 0 61 11 82 34c21 23 31 57 31 102c0 0 0 187 0 187c0 0-98 0-98 0c0 0 0-175 0-175c0-46-17-68-50-68c-24 0-41 12-50 36c-2 5-3 13-3 25c0 0 0 182 0 182c0 0-100 0-100 0c0 0 0-215 0-215"/>
    </symbol>
  
    <symbol id="icon-envelope-o" viewBox="0 0 512 512">
      <path d="m475 430l0-220c-6 7-12 13-19 19-51 39-92 72-122 97-10 8-18 14-24 19-6 4-14 9-24 14-11 4-21 7-30 7l0 0c-9 0-19-3-30-7-10-5-18-10-24-14-6-5-14-11-24-19-30-25-71-58-122-97-7-6-13-12-19-19l0 220c0 2 0 4 2 6 2 2 4 3 7 3l420 0c3 0 5-1 7-3 2-2 2-4 2-6z m0-301l0-7 0-3-1-4-1-2-3-3-4 0-420 0c-3 0-5 1-7 2-2 2-2 4-2 7 0 32 14 59 42 81 36 29 75 59 114 91 1 1 5 3 10 8 6 5 10 8 13 11 4 2 8 5 13 9 5 3 10 6 14 8 5 1 9 2 13 2l0 0c4 0 8-1 13-2 4-2 9-5 14-8 5-4 9-7 13-9 3-3 7-6 13-11 5-5 9-7 10-8 39-32 78-62 114-91 11-8 20-19 29-33 9-14 13-26 13-38z m37-10l0 311c0 12-4 23-13 32-9 9-20 13-33 13l-420 0c-13 0-24-4-33-13-9-9-13-20-13-32l0-311c0-13 4-23 13-32 9-9 20-14 33-14l420 0c13 0 24 5 33 14 9 9 13 19 13 32z"/>
    </symbol>
  
</svg>
